<svg xmlns="http://www.w3.org/2000/svg" viewBox="0 0 657.51 126.01"><defs><style>.cls-1{fill:#fff;}.cls-2{fill:none;stroke:#fff;stroke-miterlimit:10;stroke-width:2px;}.cls-3{fill:#dc3e4d;}</style></defs><g id="Calque_2" data-name="Calque 2"><g id="Calque_1-2" data-name="Calque 1"><path class="cls-1" d="M162.59,95.87H145.85V38h16.74Z"/><path class="cls-1" d="M225.28,81.66V95.87H175.54V83.72L203.39,52.2H176.46V38h48.13V50L196.86,81.66Z"/><path class="cls-1" d="M236.86,21.37a9.63,9.63,0,1,1,19.26,0,9.63,9.63,0,0,1-19.26,0Zm17.54,74.5H238.58V38H254.4Z"/><path class="cls-1" d="M267.12,66.87C267.12,49,280,36.5,297.61,36.5c9.28,0,17.42,3.55,22.81,9.74l-11.69,10a13.67,13.67,0,0,0-11-5c-8.59,0-14.44,6.3-14.44,15.7s5.73,15.7,14.56,15.7a13.35,13.35,0,0,0,11.46-5.84l11.81,10.08c-5.51,6.65-13.76,10.55-23.5,10.55C280,97.36,267.12,84.75,267.12,66.87Z"/><path class="cls-1" d="M388.39,58.73V95.87H372.68V62.17c0-7-4.24-11-11.23-11-6.19,0-13.06,3.78-13.06,11.23V95.87H332.57v-86h15.82V44c4-4.7,10.31-7.45,17.65-7.45C379,36.5,388.39,45.09,388.39,58.73Z"/><path class="cls-1" d="M454.64,61.37v34.5H440.43l-.69-7.68c-4.47,6.07-12.15,9.17-19.37,9.17-10.32,0-20.18-6.19-20.18-18.11,0-13.07,12-18.23,23.39-18.23a57.74,57.74,0,0,1,15.36,2.18V61.94c0-7.91-4.13-11.57-12.61-11.57a27.64,27.64,0,0,0-16.62,5.38l-6-11.23c6.07-4.58,15-8,25.79-8C446,36.5,454.64,44.63,454.64,61.37Zm-15.7,11.69a43.86,43.86,0,0,0-12.38-1.83c-5.85,0-10.43,2.06-10.43,7,0,4.24,3.44,6.53,8.48,6.53C431.6,84.75,438.82,80.17,438.94,73.06Z"/><path class="cls-1" d="M524.1,58.73V95.87H508.39V62.17c0-6.53-4.35-11-11.11-11C491,51.17,484.1,55,484.1,62.4V95.87H468.28V38h14.21l.69,7.1c4-5.38,10.66-8.59,18.34-8.59C514.36,36.5,524.1,45.21,524.1,58.73Z"/><path class="cls-1" d="M593.33,48l-9.29.8a22.47,22.47,0,0,1,2.18,9.74c0,13.18-10.08,22.12-24.76,22.12a35.74,35.74,0,0,1-6.18-.57c-2.41.23-4.13,1.61-4.13,4s1.72,3.33,4.58,3.33h7.91c20,0,29.69,5.61,29.69,18.56S583.93,126,563.76,126c-19.83,0-30.72-7.79-30.72-19,0-5.62,3.09-9.52,7.91-11.92a13.24,13.24,0,0,1-4-9.63,10.73,10.73,0,0,1,7-10.55,21.07,21.07,0,0,1-7.11-16.39c0-13.18,9.74-22,24.64-22A32.13,32.13,0,0,1,571.21,38h22.12Zm-29.8,51.69h-9.17c-3.33,1.49-4.93,3.55-4.93,6.42,0,4.58,4.81,7.56,14.21,7.56,9.63,0,13.64-2.52,13.64-7.68C577.28,101.26,574.07,99.65,563.53,99.65Zm8.25-41.15c0-5.73-3.55-9.17-10.32-9.17s-10.31,3.44-10.31,9.17,3.55,9.29,10.31,9.29S571.78,64.35,571.78,58.5Z"/><path class="cls-1" d="M629.89,83.72a20,20,0,0,0,13.87-5.39l10.32,9.86a34,34,0,0,1-23.73,9.17c-18,0-31.4-12.15-31.4-30.6C599,49.22,611.1,36.5,629.2,36.5c19.26,0,28.31,13.52,28.31,27.39a57,57,0,0,1-.8,8.6H615.22C616.94,79.71,622.21,83.72,629.89,83.72ZM615.22,61.48h26.94c-.58-6.76-5.28-11.23-13.07-11.23C621.75,50.25,616.83,54.49,615.22,61.48Z"/><rect class="cls-2" x="1" y="1" width="116.5" height="116.5" rx="38.95"/><g id="izi"><path class="cls-1" d="M36.7,46.1V84.39a5,5,0,0,0,10,0V46.1a5,5,0,0,0-10,0Z"/><circle class="cls-3" cx="43.51" cy="29.63" r="6.8"/><path class="cls-1" d="M73.24,42.56,58.13,59.77,45.6,74l-7,8c-1.72,2-2.08,5.16,0,7.07,1.89,1.73,5.23,2.1,7.07,0L60.8,71.85,73.37,57.53l6.94-7.89c1.72-2,2.07-5.17,0-7.08-1.89-1.73-5.23-2.09-7.07,0Z"/><path class="cls-1" d="M42.12,90.55H76.49a5,5,0,0,0,0-10H42.12a5,5,0,1,0,0,10Z"/><path class="cls-1" d="M76.77,41.1H43.06a5,5,0,0,0,0,10H76.77a5,5,0,0,0,0-10Z"/></g></g></g></svg>